<svg xmlns="http://www.w3.org/2000/svg" width="31" height="31" viewBox="0 0 31 31"><defs><style>.a{fill:#f9ede0;}.b{fill:#efece8;}.c{fill:#c6c3bd;}</style></defs><path class="a" d="M20.435,30.193c-.161.055-.324.107-.487.156C20.112,30.3,20.274,30.247,20.435,30.193Z"/><path class="a" d="M21.245,29.9c-.174.069-.348.138-.526.2C20.9,30.033,21.071,29.965,21.245,29.9Z"/><circle class="b" cx="15.5" cy="15.5" r="15.5"/><path class="a" d="M19.635,30.438q-.237.066-.478.125Q19.4,30.5,19.635,30.438Z"/><path class="a" d="M14.377,30.955c-.189-.013-.378-.028-.564-.048C14,30.927,14.188,30.942,14.377,30.955Z"/><path class="a" d="M11.843,30.562q-.241-.059-.478-.125Q11.6,30.5,11.843,30.562Z"/><path class="a" d="M13.492,30.866c-.169-.022-.338-.045-.506-.072C13.153,30.821,13.323,30.844,13.492,30.866Z"/><path class="a" d="M15.5,31c-.285,0-.568-.009-.85-.024C14.932,30.991,15.215,31,15.5,31Z"/><path class="a" d="M12.655,30.735c-.162-.03-.324-.062-.485-.1C12.331,30.673,12.492,30.7,12.655,30.735Z"/><path class="a" d="M9.528,29.806q-.362-.152-.714-.319Q9.166,29.655,9.528,29.806Z"/><path class="a" d="M10.28,30.1c-.177-.064-.352-.131-.526-.2C9.929,29.965,10.1,30.033,10.28,30.1Z"/><path class="a" d="M16.35,30.976c-.282.015-.564.024-.85.024C15.785,31,16.068,30.991,16.35,30.976Z"/><path class="a" d="M17.187,30.907c-.187.02-.376.035-.564.048C16.812,30.942,17,30.927,17.187,30.907Z"/><path class="a" d="M18.83,30.638c-.161.035-.322.067-.485.1C18.508,30.7,18.669,30.673,18.83,30.638Z"/><path class="a" d="M18.015,30.794c-.168.027-.337.05-.506.072C17.677,30.844,17.847,30.821,18.015,30.794Z"/><path class="a" d="M22.183,29.488q-.35.168-.711.318C21.712,29.705,21.95,29.6,22.183,29.488Z"/><path class="a" d="M11.052,30.349c-.164-.049-.326-.1-.487-.156C10.726,30.247,10.888,30.3,11.052,30.349Z"/><path class="a" d="M21.472,29.806c-.075.032-.151.059-.227.089C21.321,29.865,21.4,29.838,21.472,29.806Z"/><path class="a" d="M22.2,29.478l-.021.01Z"/><path class="a" d="M12.17,30.638q-.164-.036-.327-.075Q12.005,30.6,12.17,30.638Z"/><path class="a" d="M12.985,30.794c-.111-.018-.221-.038-.331-.059C12.765,30.755,12.875,30.776,12.985,30.794Z"/><path class="a" d="M14.65,30.976c-.091,0-.182-.014-.273-.021C14.468,30.962,14.559,30.971,14.65,30.976Z"/><path class="a" d="M13.813,30.907c-.107-.012-.214-.027-.321-.041C13.6,30.88,13.705,30.9,13.813,30.907Z"/><path class="a" d="M8.814,29.487,8.8,29.479Z"/><path class="a" d="M16.623,30.955c-.091.006-.182.016-.273.021C16.441,30.971,16.532,30.962,16.623,30.955Z"/><path class="a" d="M19.948,30.349c-.1.031-.208.06-.313.089C19.74,30.409,19.844,30.38,19.948,30.349Z"/><path class="a" d="M20.72,30.1c-.094.034-.189.064-.284.1C20.531,30.161,20.626,30.13,20.72,30.1Z"/><path class="a" d="M9.755,29.9c-.075-.03-.152-.058-.227-.089C9.6,29.838,9.679,29.865,9.755,29.9Z"/><path class="a" d="M10.565,30.193c-.095-.032-.19-.063-.284-.1C10.374,30.13,10.469,30.161,10.565,30.193Z"/><path class="a" d="M17.508,30.866c-.107.014-.213.029-.321.041C17.295,30.9,17.4,30.88,17.508,30.866Z"/><path class="a" d="M19.157,30.562q-.163.039-.327.075Q18.995,30.6,19.157,30.562Z"/><path class="a" d="M18.345,30.735c-.11.02-.22.041-.331.059C18.125,30.776,18.235,30.755,18.345,30.735Z"/><path class="a" d="M11.365,30.438c-.1-.029-.209-.058-.313-.089C11.156,30.38,11.26,30.409,11.365,30.438Z"/><path class="c" d="M19.048,16.566a6.414,6.414,0,1,0-7.1,0h0a12.308,12.308,0,0,0-8.389,8.822h0c.169.2.344.4.523.6.043.048.089.093.133.14.138.146.277.291.421.432.059.058.12.114.18.172.133.126.267.251.4.372l.205.178q.2.172.408.338l.219.173q.21.162.426.315c.074.053.148.107.223.159.152.1.306.205.462.3.07.044.138.09.209.134.18.111.362.216.547.32.049.027.1.057.145.083q.358.2.726.374l.018.008q.352.168.714.319c.075.032.151.059.227.089.174.069.348.138.526.2.094.034.189.064.284.1.161.055.324.107.487.156.1.031.208.06.313.089q.237.066.478.125.163.039.327.075c.161.035.322.067.485.1.11.02.22.041.331.059.168.027.337.05.506.072.107.014.213.029.321.041.187.02.376.035.564.048.091.006.182.016.273.021.282.016.564.025.85.025s.568-.009.85-.024c.091,0,.182-.014.273-.021.189-.013.378-.028.564-.048.107-.012.214-.027.321-.041.169-.022.338-.045.506-.072.111-.018.221-.038.331-.059.162-.03.324-.062.485-.1q.164-.036.327-.075.241-.059.478-.125c.1-.029.209-.058.313-.089.164-.049.326-.1.487-.156.095-.032.19-.063.284-.1.177-.064.352-.131.526-.2.075-.03.152-.058.227-.089.24-.1.477-.206.711-.318l.021-.01q.369-.177.726-.374c.049-.027.1-.056.145-.083.184-.1.367-.21.547-.32.071-.043.14-.089.209-.134.156-.1.31-.2.462-.3.075-.052.149-.105.223-.159q.216-.155.426-.315c.074-.057.146-.114.219-.173q.207-.165.408-.338c.069-.059.138-.118.205-.178.137-.121.271-.246.4-.372.06-.057.121-.114.18-.172q.215-.212.421-.432c.044-.047.089-.092.133-.14.179-.2.354-.394.523-.6h0A12.306,12.306,0,0,0,19.048,16.566Z"/></svg>